<svg width="25" height="24" viewBox="0 0 25 24" fill="none" xmlns="http://www.w3.org/2000/svg">
<path d="M9.62514 10.9153C9.73918 10.8495 9.83387 10.7548 9.8997 10.6407C9.96553 10.5267 10.0002 10.3973 10.0001 10.2656V3.51562C9.99947 3.39605 9.97022 3.27837 9.91483 3.1724C9.85944 3.06643 9.77951 2.97523 9.68171 2.90643C9.58392 2.83762 9.47109 2.7932 9.35263 2.77686C9.23418 2.76052 9.11353 2.77274 9.00076 2.8125C6.81168 3.58726 4.97075 5.11748 3.8089 7.12807C2.64706 9.13865 2.2405 11.4977 2.66232 13.7812C2.68419 13.8993 2.73409 14.0104 2.80783 14.1052C2.88157 14.2 2.97699 14.2757 3.08607 14.3259C3.18438 14.3719 3.29162 14.3956 3.40014 14.3953C3.53177 14.3954 3.66111 14.3608 3.77514 14.295L9.62514 10.9153ZM8.50014 4.65188V9.8325L4.01139 12.4228C4.00014 12.2812 4.00014 12.1388 4.00014 12C4.00147 10.4797 4.42229 8.98928 5.21626 7.69279C6.01023 6.3963 7.14656 5.34404 8.50014 4.65188ZM12.2501 2.25C12.0512 2.25 11.8605 2.32902 11.7198 2.46967C11.5792 2.61032 11.5001 2.80109 11.5001 3V11.6081L4.1117 15.9122C4.02596 15.9619 3.95093 16.0281 3.89092 16.107C3.83092 16.1858 3.78715 16.2758 3.76213 16.3717C3.73711 16.4676 3.73134 16.5675 3.74516 16.6656C3.75898 16.7638 3.79211 16.8582 3.84264 16.9434C4.70861 18.4156 5.94611 19.6344 7.43125 20.478C8.91639 21.3215 10.5971 21.7601 12.305 21.7498C14.0129 21.7396 15.6882 21.2809 17.1631 20.4196C18.638 19.5583 19.8608 18.3247 20.7091 16.8422C21.5573 15.3598 22.0013 13.6805 21.9965 11.9726C21.9917 10.2646 21.5383 8.58787 20.6817 7.11022C19.8251 5.63257 18.5954 4.40586 17.1157 3.55289C15.6359 2.69993 13.9581 2.25064 12.2501 2.25ZM12.2501 20.25C10.9409 20.2465 9.65103 19.9331 8.48613 19.3354C7.32124 18.7377 6.31439 17.8727 5.54795 16.8113L12.628 12.6863C12.7419 12.6205 12.8365 12.5259 12.9023 12.4121C12.9681 12.2982 13.0028 12.169 13.003 12.0375V3.78375C15.1183 3.97567 17.0782 4.9761 18.4745 6.57675C19.8708 8.1774 20.5959 10.2549 20.4989 12.3768C20.4019 14.4987 19.4902 16.5013 17.9537 17.9679C16.4172 19.4345 14.3742 20.2519 12.2501 20.25Z" fill="#888D95"/>
</svg>
