<svg width="25" height="24" viewBox="0 0 25 24" fill="none" xmlns="http://www.w3.org/2000/svg">
<path d="M21.3733 15.8523L12.7483 20.8819L4.12334 15.8523C3.95257 15.7672 3.75582 15.7505 3.57313 15.8054C3.39044 15.8603 3.23554 15.9828 3.13997 16.1479C3.0444 16.313 3.01533 16.5083 3.05869 16.6941C3.10205 16.8799 3.21456 17.0421 3.37334 17.1479L12.3733 22.3979C12.488 22.4648 12.6184 22.5 12.7512 22.5C12.8839 22.5 13.0143 22.4648 13.129 22.3979L22.129 17.1479C22.2154 17.099 22.2913 17.0334 22.3522 16.9549C22.4131 16.8765 22.4578 16.7867 22.4837 16.6908C22.5096 16.5949 22.5162 16.4949 22.5031 16.3964C22.49 16.2979 22.4576 16.2031 22.4075 16.1173C22.3575 16.0315 22.2909 15.9565 22.2116 15.8966C22.1324 15.8368 22.042 15.7932 21.9458 15.7686C21.8496 15.7439 21.7495 15.7386 21.6512 15.753C21.5529 15.7674 21.4585 15.8011 21.3733 15.8523Z" fill="#033839"/>
<path d="M21.3733 11.3523L12.7483 16.3819L4.12334 11.3523C3.95257 11.2672 3.75582 11.2505 3.57313 11.3054C3.39044 11.3603 3.23554 11.4828 3.13997 11.6479C3.0444 11.813 3.01533 12.0083 3.05869 12.1941C3.10205 12.3799 3.21456 12.5421 3.37334 12.6479L12.3733 17.8979C12.488 17.9648 12.6184 18 12.7512 18C12.8839 18 13.0143 17.9648 13.129 17.8979L22.129 12.6479C22.2154 12.599 22.2913 12.5334 22.3522 12.4549C22.4131 12.3765 22.4578 12.2867 22.4837 12.1908C22.5096 12.0949 22.5162 11.9949 22.5031 11.8964C22.49 11.7979 22.4576 11.7031 22.4075 11.6173C22.3575 11.5315 22.2909 11.4565 22.2116 11.3966C22.1324 11.3368 22.042 11.2932 21.9458 11.2686C21.8496 11.2439 21.7495 11.2386 21.6512 11.253C21.5529 11.2674 21.4585 11.3011 21.3733 11.3523Z" fill="#033839"/>
<path d="M3.37597 8.14774L12.376 13.3977C12.4906 13.4646 12.621 13.4999 12.7538 13.4999C12.8865 13.4999 13.0169 13.4646 13.1316 13.3977L22.1316 8.14774C22.2448 8.08169 22.3387 7.98712 22.404 7.87345C22.4693 7.75979 22.5037 7.631 22.5037 7.49993C22.5037 7.36885 22.4693 7.24006 22.404 7.1264C22.3387 7.01274 22.2448 6.91816 22.1316 6.85211L13.1316 1.60211C13.0169 1.53524 12.8865 1.5 12.7538 1.5C12.621 1.5 12.4906 1.53524 12.376 1.60211L3.37597 6.85211C3.26275 6.91816 3.16882 7.01274 3.10354 7.1264C3.03826 7.24006 3.00391 7.36885 3.00391 7.49993C3.00391 7.631 3.03826 7.75979 3.10354 7.87345C3.16882 7.98712 3.26275 8.08169 3.37597 8.14774Z" fill="#033839"/>
</svg>
