<svg width="25" height="24" viewBox="0 0 25 24" fill="none" xmlns="http://www.w3.org/2000/svg">
<path d="M23.4251 5H19.6247C19.0234 5 18.4942 5.40412 18.3018 6.01029L17.0992 9.92518C16.7263 11.1249 16.0168 11.9331 14.2609 11.9331H11.7955L13.5754 6.13658C13.7438 5.56829 13.3469 5 12.7816 5H8.98125C8.37993 5 7.85076 5.40412 7.65834 6.01029L6.45569 9.92518C6.08286 11.1249 5.3733 11.9331 3.61743 11.9331H0.25L7.21336 18.5379C8.1394 19.4093 9.60663 18.9926 9.99148 17.7549L11.579 12.5898L17.8568 18.5379C18.7829 19.4093 20.2501 18.9926 20.635 17.7549L22.4269 11.9331L24.2068 6.14921C24.3872 5.58092 23.9783 5 23.4251 5Z" fill="#888D95"/>
</svg>
