<svg width="25" height="24" viewBox="0 0 25 24" fill="none" xmlns="http://www.w3.org/2000/svg">
<path d="M22.5 19.5C22.5 19.6989 22.421 19.8897 22.2803 20.0303C22.1397 20.171 21.9489 20.25 21.75 20.25H3.75C3.55109 20.25 3.36032 20.171 3.21967 20.0303C3.07902 19.8897 3 19.6989 3 19.5V4.5C3 4.30109 3.07902 4.11032 3.21967 3.96967C3.36032 3.82902 3.55109 3.75 3.75 3.75C3.94891 3.75 4.13968 3.82902 4.28033 3.96967C4.42098 4.11032 4.5 4.30109 4.5 4.5V14.6897L9.21937 9.96937C9.28903 9.89964 9.37175 9.84432 9.46279 9.80658C9.55384 9.76884 9.65144 9.74941 9.75 9.74941C9.84856 9.74941 9.94616 9.76884 10.0372 9.80658C10.1283 9.84432 10.211 9.89964 10.2806 9.96937L12.75 12.4397L17.6897 7.5H15.75C15.5511 7.5 15.3603 7.42098 15.2197 7.28033C15.079 7.13968 15 6.94891 15 6.75C15 6.55109 15.079 6.36032 15.2197 6.21967C15.3603 6.07902 15.5511 6 15.75 6H19.5C19.6989 6 19.8897 6.07902 20.0303 6.21967C20.171 6.36032 20.25 6.55109 20.25 6.75V10.5C20.25 10.6989 20.171 10.8897 20.0303 11.0303C19.8897 11.171 19.6989 11.25 19.5 11.25C19.3011 11.25 19.1103 11.171 18.9697 11.0303C18.829 10.8897 18.75 10.6989 18.75 10.5V8.56031L13.2806 14.0306C13.211 14.1004 13.1283 14.1557 13.0372 14.1934C12.9462 14.2312 12.8486 14.2506 12.75 14.2506C12.6514 14.2506 12.5538 14.2312 12.4628 14.1934C12.3717 14.1557 12.289 14.1004 12.2194 14.0306L9.75 11.5603L4.5 16.8103V18.75H21.75C21.9489 18.75 22.1397 18.829 22.2803 18.9697C22.421 19.1103 22.5 19.3011 22.5 19.5Z" fill="#888D95"/>
</svg>
