<svg width="44" height="44" viewBox="0 0 44 44" fill="none" xmlns="http://www.w3.org/2000/svg">
<rect width="44" height="44" rx="22" fill="#3C595B"/>
<path d="M22 9C19.4288 9 16.9154 9.76244 14.7776 11.1909C12.6398 12.6194 10.9735 14.6497 9.98957 17.0251C9.00563 19.4006 8.74819 22.0144 9.2498 24.5362C9.75141 27.0579 10.9895 29.3743 12.8076 31.1924C14.6257 33.0105 16.9421 34.2486 19.4638 34.7502C21.9856 35.2518 24.5995 34.9944 26.9749 34.0104C29.3503 33.0265 31.3807 31.3603 32.8091 29.2224C34.2376 27.0846 35 24.5712 35 22C34.996 18.5534 33.6251 15.2491 31.188 12.812C28.7509 10.3749 25.4466 9.00397 22 9ZM31.795 17H27.3388C26.7776 14.9411 25.8318 13.0071 24.5513 11.3C26.0984 11.6717 27.5469 12.3735 28.7974 13.3573C30.0479 14.3412 31.0709 15.5838 31.7963 17H31.795ZM33 22C33.0009 23.0145 32.8608 24.0241 32.5838 25H27.77C28.0767 23.0118 28.0767 20.9882 27.77 19H32.5838C32.8608 19.9759 33.0009 20.9855 33 22ZM22 11.375C23.4974 12.9782 24.609 14.902 25.25 17H18.75C19.3904 14.9018 20.502 12.9777 22 11.375ZM18.75 27H25.25C24.6096 29.0982 23.498 31.0223 22 32.625C20.5026 31.0218 19.391 29.098 18.75 27ZM18.2625 25C17.9192 23.0147 17.9192 20.9853 18.2625 19H25.7475C26.0908 20.9853 26.0908 23.0147 25.7475 25H18.2625ZM24.5563 32.7C25.8368 30.9929 26.7826 29.0589 27.3438 27H31.8013C31.0754 28.4168 30.0516 29.6597 28.8002 30.6436C27.5488 31.6275 26.0993 32.329 24.5513 32.7H24.5563Z" fill="#B8F4EF"/>
</svg>
