<svg width="44" height="44" viewBox="0 0 44 44" fill="none" xmlns="http://www.w3.org/2000/svg">
<rect width="44" height="44" rx="22" fill="#3C595B"/>
<path d="M33 11H11C10.4696 11 9.96086 11.2107 9.58579 11.5858C9.21071 11.9609 9 12.4696 9 13V31C9 31.5304 9.21071 32.0391 9.58579 32.4142C9.96086 32.7893 10.4696 33 11 33H33C33.5304 33 34.0391 32.7893 34.4142 32.4142C34.7893 32.0391 35 31.5304 35 31V13C35 12.4696 34.7893 11.9609 34.4142 11.5858C34.0391 11.2107 33.5304 11 33 11ZM31 30H13C12.7348 30 12.4804 29.8946 12.2929 29.7071C12.1054 29.5196 12 29.2652 12 29V15C12 14.7348 12.1054 14.4804 12.2929 14.2929C12.4804 14.1054 12.7348 14 13 14C13.2652 14 13.5196 14.1054 13.7071 14.2929C13.8946 14.4804 14 14.7348 14 15V24.5863L18.2925 20.2925C18.3854 20.1995 18.4957 20.1258 18.6171 20.0754C18.7385 20.0251 18.8686 19.9992 19 19.9992C19.1314 19.9992 19.2615 20.0251 19.3829 20.0754C19.5043 20.1258 19.6146 20.1995 19.7075 20.2925L22 22.5863L27.5863 17H24C23.7348 17 23.4804 16.8946 23.2929 16.7071C23.1054 16.5196 23 16.2652 23 16C23 15.7348 23.1054 15.4804 23.2929 15.2929C23.4804 15.1054 23.7348 15 24 15H30C30.2652 15 30.5196 15.1054 30.7071 15.2929C30.8946 15.4804 31 15.7348 31 16V22C31 22.2652 30.8946 22.5196 30.7071 22.7071C30.5196 22.8946 30.2652 23 30 23C29.7348 23 29.4804 22.8946 29.2929 22.7071C29.1054 22.5196 29 22.2652 29 22V18.4137L22.7075 24.7075C22.6146 24.8005 22.5043 24.8742 22.3829 24.9246C22.2615 24.9749 22.1314 25.0008 22 25.0008C21.8686 25.0008 21.7385 24.9749 21.6171 24.9246C21.4957 24.8742 21.3854 24.8005 21.2925 24.7075L19 22.4137L14 27.4137V28H31C31.2652 28 31.5196 28.1054 31.7071 28.2929C31.8946 28.4804 32 28.7348 32 29C32 29.2652 31.8946 29.5196 31.7071 29.7071C31.5196 29.8946 31.2652 30 31 30Z" fill="#B8F4EF"/>
</svg>
