<svg width="345" height="48" viewBox="0 0 345 48" fill="none" xmlns="http://www.w3.org/2000/svg">
<path d="M72.0149 5.00586H61.1215C59.3979 5.00586 57.8811 6.103 57.3295 7.74872L53.8822 18.3773C52.8136 21.6344 50.7797 23.8287 45.7467 23.8287H38.6798L43.7817 8.09157C44.2643 6.54872 43.1267 5.00586 41.5065 5.00586H30.6131C28.8895 5.00586 27.3727 6.103 26.8211 7.74872L23.3739 18.3773C22.3052 21.6344 20.2713 23.8287 15.2383 23.8287H5.58594L25.5456 41.7601C28.2 44.1259 32.4057 42.9944 33.5088 39.6344L38.0592 25.6116L56.054 41.7601C58.7084 44.1259 62.9141 42.9944 64.0172 39.6344L69.1536 23.8287L74.2556 8.12586C74.7727 6.583 73.6006 5.00586 72.0149 5.00586Z" fill="white"/>
<path d="M123.205 18.3872C117.125 18.3872 113.832 22.7028 113.832 29.1936C113.832 35.6843 117.093 40 123.205 40C129.285 40 132.578 35.6843 132.578 29.1936C132.578 22.7028 129.317 18.3872 123.205 18.3872ZM123.205 37.0308C119.468 37.0308 117.695 33.9581 117.695 29.1936C117.695 24.4291 119.468 21.3563 123.205 21.3563C126.942 21.3563 128.715 24.4291 128.715 29.1936C128.715 33.9581 126.942 37.0308 123.205 37.0308ZM173.397 18.3872C167.317 18.3872 164.023 22.7028 164.023 29.1936C164.023 35.6843 167.285 40 173.397 40C179.477 40 182.77 35.6843 182.77 29.1936C182.77 22.7028 179.477 18.3872 173.397 18.3872ZM173.397 37.0308C169.66 37.0308 167.887 33.9581 167.887 29.1936C167.887 24.4291 169.66 21.3563 173.397 21.3563C177.133 21.3563 178.907 24.4291 178.907 29.1936C178.907 33.9581 177.133 37.0308 173.397 37.0308ZM246.61 18.3527C240.245 18.3527 236.857 23.2552 236.857 29.1936C236.857 35.0629 240.277 40 246.927 40C252.595 40 255.065 36.4784 255.92 33.1985H251.107C250.695 34.7522 249.618 36.3403 246.8 36.3403C243.538 36.3403 241.765 33.6473 241.733 30.471H256.173V29.3662C256.11 23.0136 252.912 18.3527 246.61 18.3527ZM241.702 26.7768C241.987 24.1874 243.633 22.0123 246.61 22.0123C249.682 22.0123 251.17 24.36 251.297 26.7768H241.702ZM107.245 23.566H94.8633V12H91V39.6893H94.8633V26.9494H107.245V39.6893H111.108V12H107.245V23.566ZM311.4 18.3527C308.772 18.3527 306.935 19.3539 305.7 21.1147V12H300.697V39.6893H305.7V27.5019C305.7 24.1874 307.157 22.1159 309.943 22.1159C312.603 22.1159 313.997 23.8767 313.997 27.0875V39.6893H319V26.8804C319 21.4945 316.118 18.3527 311.4 18.3527ZM294.775 12H289.772V18.6979H285.718V23.0826H289.772V39.6547H294.775V23.0826H298.828V18.6634H294.775V12ZM278.847 39.6893H283.85V12H278.847V39.6893ZM275.427 35.9605V25.3958C275.427 20.7349 272.45 18.3527 267.098 18.3527C261.113 18.3527 258.517 21.598 258.073 25.1887H262.887C263.077 23.3933 264.47 22.0123 266.845 22.0123C269.03 22.0123 270.582 22.9445 270.582 25.2577C270.582 26.2935 270.012 26.6387 268.808 26.8459L264.027 27.5709C259.878 28.1924 257.313 29.8841 257.313 33.7164C257.313 37.5487 260.448 39.9655 264.787 39.9655C267.953 39.9655 269.727 38.688 270.677 37.2725V37.4797C270.708 38.2047 270.772 38.9297 270.898 39.6547H275.743V39.3095C275.49 38.2392 275.395 37.0999 275.427 35.9605ZM270.613 31.9211C270.613 34.5795 269.125 36.5129 266.243 36.5129C264.09 36.5129 262.317 35.5117 262.317 33.4747C262.317 31.7485 263.615 31.1961 265.515 30.8163L268.713 30.0912C269.727 29.8841 270.36 29.5734 270.613 29.1936V31.9211ZM233.025 12L228.623 33.9926L224 12H223.968H217.635H217.603L213.012 33.9926L208.61 12H203.227L210.067 39.6893H216.242L220.833 18.2836L225.425 39.6893H231.6L238.44 12H233.025ZM195.152 18.3872C192.302 18.3872 190.338 19.5956 189.135 21.7361V18.6634H185.272V39.6547H189.135V27.5709C189.135 23.7386 190.782 21.2528 194.075 21.2528C197.147 21.2528 198.73 23.3588 198.73 27.053V39.6547H202.593V26.8804C202.593 21.4945 199.87 18.3872 195.152 18.3872ZM159.685 12H155.822V18.6979H151.642V21.8742H155.822V39.6893H159.685V21.8742H163.865V18.6979H159.685V12ZM146.86 18.6634L141.698 26.5351L136.537 18.6634H132.483L139.387 28.7448L132.483 39.6547H136.537L141.698 31.127L146.86 39.6547H150.882L144.01 28.7448L150.882 18.6634H146.86Z" fill="white"/>
</svg>
