<svg width="278" height="235" viewBox="0 0 278 235" fill="none" xmlns="http://www.w3.org/2000/svg">
<path d="M263.392 0H196.094C185.446 0 176.075 6.78339 172.667 16.9585L151.37 82.6726C144.768 102.811 132.203 116.378 101.11 116.378H57.4509L88.9704 19.0783C91.9519 9.53915 84.9239 0 74.9144 0H7.61597C-3.03252 0 -12.4032 6.78339 -15.8107 16.9585L-37.1077 82.6726C-43.7097 102.811 -56.2749 116.378 -87.3685 116.378H-147L-23.6906 227.244C-7.29192 241.87 18.6904 234.875 25.5054 214.101L53.6174 127.401L164.788 227.244C181.186 241.87 207.169 234.875 213.984 214.101L245.716 116.378L277.236 19.2903C280.43 9.75113 273.189 0 263.392 0Z" fill="white" fill-opacity="0.02"/>
</svg>
