<svg width="328" height="235" viewBox="0 0 328 235" fill="none" xmlns="http://www.w3.org/2000/svg">
<path d="M410.392 0H343.094C332.446 0 323.075 6.78339 319.667 16.9585L298.37 82.6726C291.768 102.811 279.203 116.378 248.11 116.378H204.451L235.97 19.0783C238.952 9.53915 231.924 0 221.914 0H154.616C143.967 0 134.597 6.78339 131.189 16.9585L109.892 82.6726C103.29 102.811 90.7251 116.378 59.6315 116.378H0L123.309 227.244C139.708 241.87 165.69 234.875 172.505 214.101L200.617 127.401L311.788 227.244C328.186 241.87 354.169 234.875 360.984 214.101L392.716 116.378L424.236 19.2903C427.43 9.75113 420.189 0 410.392 0Z" fill="white" fill-opacity="0.02"/>
</svg>
