<svg width="44" height="44" viewBox="0 0 44 44" fill="none" xmlns="http://www.w3.org/2000/svg">
<rect width="44" height="44" rx="22" fill="#3C595B"/>
<path d="M32 11H12C11.4696 11 10.9609 11.2107 10.5858 11.5858C10.2107 11.9609 10 12.4696 10 13V20C10 26.59 13.19 30.5838 15.8663 32.7738C18.7487 35.1313 21.6163 35.9313 21.7413 35.965C21.9131 36.0118 22.0944 36.0118 22.2663 35.965C22.3913 35.9313 25.255 35.1313 28.1413 32.7738C30.81 30.5838 34 26.59 34 20V13C34 12.4696 33.7893 11.9609 33.4142 11.5858C33.0391 11.2107 32.5304 11 32 11ZM27.71 19.7075L20.71 26.7075C20.6171 26.8005 20.5068 26.8742 20.3854 26.9246C20.264 26.9749 20.1339 27.0008 20.0025 27.0008C19.8711 27.0008 19.741 26.9749 19.6196 26.9246C19.4982 26.8742 19.3879 26.8005 19.295 26.7075L16.295 23.7075C16.1074 23.5199 16.0019 23.2654 16.0019 23C16.0019 22.7346 16.1074 22.4801 16.295 22.2925C16.4826 22.1049 16.7371 21.9994 17.0025 21.9994C17.2679 21.9994 17.5224 22.1049 17.71 22.2925L20 24.5863L26.2925 18.2925C26.3854 18.1996 26.4957 18.1259 26.6171 18.0756C26.7385 18.0253 26.8686 17.9994 27 17.9994C27.1314 17.9994 27.2615 18.0253 27.3829 18.0756C27.5043 18.1259 27.6146 18.1996 27.7075 18.2925C27.8004 18.3854 27.8741 18.4957 27.9244 18.6171C27.9747 18.7385 28.0006 18.8686 28.0006 19C28.0006 19.1314 27.9747 19.2615 27.9244 19.3829C27.8741 19.5043 27.8004 19.6146 27.7075 19.7075H27.71Z" fill="#B8F4EF"/>
</svg>
