<svg width="44" height="44" viewBox="0 0 44 44" fill="none" xmlns="http://www.w3.org/2000/svg">
<rect width="44" height="44" rx="22" fill="#3C595B"/>
<path d="M22 9C19.4288 9 16.9154 9.76244 14.7776 11.1909C12.6398 12.6194 10.9735 14.6497 9.98957 17.0251C9.00563 19.4006 8.74819 22.0144 9.2498 24.5362C9.75141 27.0579 10.9895 29.3743 12.8076 31.1924C14.6257 33.0105 16.9421 34.2486 19.4638 34.7502C21.9856 35.2518 24.5995 34.9944 26.9749 34.0104C29.3503 33.0265 31.3807 31.3603 32.8091 29.2224C34.2376 27.0846 35 24.5712 35 22C34.9964 18.5533 33.6256 15.2488 31.1884 12.8116C28.7512 10.3744 25.4467 9.00364 22 9ZM22 11C23.761 11.0007 25.4961 11.4242 27.0594 12.2349C28.6227 13.0456 29.9686 14.2198 30.9838 15.6587L22 20.845V11ZM22 33C20.239 32.9993 18.5039 32.5758 16.9406 31.7651C15.3773 30.9544 14.0314 29.7802 13.0163 28.3412L31.9863 17.39C32.7598 19.0659 33.0992 20.9096 32.9732 22.7512C32.8471 24.5927 32.2597 26.3729 31.265 27.9278C30.2702 29.4827 28.9002 30.7623 27.2811 31.6487C25.662 32.5351 23.8459 32.9998 22 33Z" fill="#B8F4EF"/>
</svg>
