<svg width="69" height="38" viewBox="0 0 69 38" fill="none" xmlns="http://www.w3.org/2000/svg">
<path d="M66.4289 0H55.5356C53.8119 0 52.2951 1.09714 51.7436 2.74286L48.2963 13.3714C47.2276 16.6286 45.1937 18.8229 40.1607 18.8229H33.0938L38.1958 3.08571C38.6784 1.54286 37.5408 0 35.9206 0H25.0272C23.3036 0 21.7868 1.09714 21.2352 2.74286L17.7879 13.3714C16.7193 16.6286 14.6854 18.8229 9.65236 18.8229H0L19.9597 36.7543C22.6141 39.12 26.8198 37.9886 27.9229 34.6286L32.4733 20.6057L50.4681 36.7543C53.1225 39.12 57.3281 37.9886 58.4313 34.6286L63.5677 18.8229L68.6697 3.12C69.1868 1.57714 68.0147 0 66.4289 0Z" fill="white"/>
</svg>
